<svg width="1383" height="1392" viewBox="0 0 1383 1392" fill="none" xmlns="http://www.w3.org/2000/svg">
<path d="M945.027 798.887C945.862 797.519 947.328 796.891 948.302 797.485C954.272 801.13 960.039 805.012 965.601 809.117L967.218 810.322C1104.26 913.295 1115.22 1153.99 988.107 1362.23L970.405 1391.23C816.833 1297.47 797.298 1048.65 924.976 831.89L926.484 829.341C927.77 827.181 929.069 825.024 930.384 822.871L945.027 798.887ZM239.543 43.0312C635.875 43.0793 963.735 300.411 1018.23 635.142L552.416 350.855C552.672 351.03 763.059 494.709 880.285 597.007C897.637 612.149 915.458 628.173 933.552 644.829C934.467 645.481 935.364 646.189 936.237 646.952C1171.11 852.185 1243.81 1043.83 1356.45 1312.77C1356.32 1312.53 1210.56 1055.54 1070.96 885.14C1010.19 810.962 964.881 765.212 933.091 737.193C514.536 718.807 181.611 415.053 181.61 43.0312H239.543ZM0 1123.81C57.1061 842.785 435.619 681.935 848.712 761.228C852.817 762.015 856.926 762.827 861.037 763.662L906.837 772.969C909.449 773.5 911.274 775.369 910.913 777.143C908.702 788.025 906.005 798.726 902.841 809.238C823.997 1071.16 454.554 1216.14 55.3643 1135.06L0 1123.81ZM1362.9 36.584C1362.9 36.6071 1362.91 36.6302 1362.92 36.6533C1433.7 300.941 1311.54 565.356 1088.44 642.593C1079.48 645.693 1070.37 648.491 1061.09 650.976C1059.58 651.381 1057.98 650.307 1057.52 648.578L1049.39 618.256C1048.66 615.534 1047.95 612.812 1047.26 610.09C977.95 336.182 1113.62 64.1682 1353.09 0L1362.9 36.584Z" fill="#2D5A27"/>
</svg>
