<svg width="6224" height="1641" viewBox="0 0 6224 1641" fill="none" xmlns="http://www.w3.org/2000/svg">
<path d="M1213.03 984.494C1213.86 983.126 1215.33 982.499 1216.3 983.093C1222.27 986.738 1228.04 990.619 1233.6 994.725L1235.22 995.93C1372.26 1098.9 1383.22 1339.6 1256.11 1547.84L1238.41 1576.84C1084.83 1483.08 1065.3 1234.26 1192.98 1017.5L1194.48 1014.95C1195.77 1012.79 1197.07 1010.63 1198.38 1008.48L1213.03 984.494ZM507.543 228.639C903.875 228.687 1231.74 486.018 1286.23 820.749L820.416 536.463C820.672 536.638 1031.06 680.317 1148.29 782.614C1165.64 797.756 1183.46 813.78 1201.55 830.437C1202.47 831.089 1203.36 831.797 1204.24 832.56C1439.11 1037.79 1511.81 1229.44 1624.45 1498.37C1624.32 1498.14 1478.56 1241.14 1338.96 1070.75C1278.19 996.57 1232.88 950.819 1201.09 922.801C782.536 904.414 449.611 600.661 449.61 228.639H507.543ZM268 1309.42C325.106 1028.39 703.619 867.542 1116.71 946.835C1120.82 947.623 1124.93 948.434 1129.04 949.27L1174.84 958.576C1177.45 959.107 1179.27 960.976 1178.91 962.75C1176.7 973.632 1174.01 984.333 1170.84 994.846C1092 1256.77 722.554 1401.75 323.364 1320.67L268 1309.42ZM1630.9 222.191C1630.9 222.215 1630.91 222.238 1630.92 222.261C1701.7 486.549 1579.54 750.963 1356.44 828.2C1347.48 831.3 1338.37 834.098 1329.09 836.583C1327.58 836.988 1325.98 835.915 1325.52 834.186L1317.39 803.863C1316.66 801.141 1315.95 798.419 1315.26 795.697C1245.95 521.789 1381.62 249.776 1621.09 185.607L1630.9 222.191Z" fill="#2D5A27"/>
<path d="M2400.6 836.6C2400.6 863 2379.8 883 2351.8 883H2091.8C2063.8 883 2043 862.2 2043 834.2V371.8C2043 343.8 2064.6 323 2094.2 323C2120.6 323 2143 343.8 2143 371.8V789.4H2351.8C2379.8 789.4 2400.6 808.6 2400.6 836.6ZM2819.42 702.2H2555.42C2568.22 765.4 2619.42 803 2677.02 803C2741.02 803 2763.42 780.6 2772.22 775C2781.82 770.2 2790.62 767.8 2799.42 767.8C2821.82 767.8 2840.22 786.2 2840.22 807.8C2840.22 822.2 2833.02 835 2817.82 847C2788.22 871.8 2733.02 890.2 2681.82 890.2C2547.42 890.2 2461.02 799 2460.22 675C2458.62 537.4 2560.22 447.8 2665.82 447C2770.62 447 2870.62 546.2 2868.22 659C2867.42 684.6 2845.02 702.2 2819.42 702.2ZM2556.22 622.2H2765.82V616.6C2763.42 594.2 2753.02 575 2733.02 559C2713.02 543 2690.62 535 2665.82 535C2604.22 535 2567.42 563.8 2556.22 622.2ZM3345.81 495.8V834.2C3345.81 862.2 3325.81 883 3297.81 883C3269.81 883 3250.61 863 3249.81 835C3223.41 866.2 3174.61 890.2 3124.21 890.2C3013.81 890.2 2927.41 798.2 2927.41 669.4C2927.41 540.6 3013.01 447 3121.01 447C3172.21 447 3218.61 467.8 3249.81 496.6V495.8C3249.81 467.8 3269.81 447 3297.81 447C3325.81 447 3345.81 467 3345.81 495.8ZM3253.81 669.4C3253.81 631 3242.61 599 3221.01 573.4C3199.41 547.8 3170.61 535 3136.21 535C3101.81 535 3073.81 547.8 3052.21 573.4C3030.61 599 3019.41 631 3019.41 669.4C3019.41 707.8 3029.81 739.8 3051.41 765.4C3073.01 790.2 3101.81 803 3136.21 803C3170.61 803 3199.41 790.2 3221.01 765.4C3242.61 739.8 3253.81 707.8 3253.81 669.4ZM3605.84 425.4V463H3678.64C3704.24 463 3723.44 481.4 3723.44 507C3723.44 532.6 3704.24 551 3678.64 551H3605.84V834.2C3605.84 862.2 3585.84 883 3557.84 883C3529.84 883 3509.84 862.2 3509.84 834.2V551H3466.64C3441.04 551 3421.84 532.6 3421.84 507C3421.84 481.4 3441.04 463 3466.64 463H3509.84V426.2C3509.84 346.2 3566.64 291 3669.84 291C3709.04 291 3743.44 307 3743.44 339.8C3743.44 365.4 3726.64 383 3705.04 383C3699.44 383 3693.84 381.4 3687.44 380.6C3674.64 377.4 3664.24 375.8 3655.44 375.8C3619.44 375.8 3605.84 400.6 3605.84 425.4ZM4009.26 827.8C3994.86 815 3987.66 800.6 3987.66 785.4C3987.66 760.6 4008.46 739 4034.06 739C4044.46 739 4053.26 742.2 4061.26 748.6C4103.66 783.8 4140.46 799 4195.66 799C4225.26 799 4250.86 792.6 4272.46 779C4294.06 765.4 4305.26 749.4 4305.26 729.4C4305.26 681.4 4264.46 655.8 4171.66 642.2C4054.86 625.4 3996.46 571 3996.46 479C3996.46 377.4 4083.66 315 4196.46 315C4263.66 315 4326.06 337.4 4365.26 370.2C4380.46 382.2 4388.46 396.6 4388.46 412.6C4388.46 437.4 4367.66 459 4342.86 459C4334.86 459 4327.66 456.6 4321.26 451.8C4307.66 440.6 4287.66 430.2 4262.86 421.4C4238.06 411.8 4216.46 407 4196.46 407C4129.26 407 4090.86 434.2 4090.86 475C4090.86 520.6 4127.66 540.6 4208.46 555.8C4344.46 581.4 4399.66 615.8 4401.26 723.8C4402.06 825.4 4305.26 890.2 4195.66 890.2C4118.86 890.2 4061.26 873.4 4009.26 827.8ZM4820.2 702.2H4556.2C4569 765.4 4620.2 803 4677.8 803C4741.8 803 4764.2 780.6 4773 775C4782.6 770.2 4791.4 767.8 4800.2 767.8C4822.6 767.8 4841 786.2 4841 807.8C4841 822.2 4833.8 835 4818.6 847C4789 871.8 4733.8 890.2 4682.6 890.2C4548.2 890.2 4461.8 799 4461 675C4459.4 537.4 4561 447.8 4666.6 447C4771.4 447 4871.4 546.2 4869 659C4868.2 684.6 4845.8 702.2 4820.2 702.2ZM4557 622.2H4766.6V616.6C4764.2 594.2 4753.8 575 4733.8 559C4713.8 543 4691.4 535 4666.6 535C4605 535 4568.2 563.8 4557 622.2ZM5321.86 629.4V834.2C5321.86 862.2 5301.86 883 5273.86 883C5245.86 883 5225.86 862.2 5225.86 834.2V629.4C5225.86 571 5204.26 535 5144.26 535C5082.66 535 5045.06 575 5045.06 629.4V834.2C5045.06 862.2 5025.06 883 4997.06 883C4969.06 883 4949.06 862.2 4949.06 834.2V503.8C4949.06 475.8 4969.06 455 4997.06 455C5025.06 455 5045.06 475.8 5045.06 503.8V517.4C5073.86 479 5122.66 447 5177.86 447C5232.26 447 5269.86 463 5290.66 495.8C5311.46 527.8 5321.86 572.6 5321.86 629.4ZM5393.63 792.6C5393.63 779 5400.83 767 5414.43 757.4C5421.63 752.6 5429.63 750.2 5437.63 750.2C5448.83 750.2 5459.23 755 5469.63 765.4C5501.63 798.2 5533.63 815 5582.43 814.2C5624.03 813.4 5644.83 796.6 5644.83 767C5644.83 735.8 5617.63 723.8 5557.63 707.8C5526.43 699 5501.63 691 5481.63 682.2C5443.23 665.4 5410.43 631.8 5410.43 573.4C5410.43 496.6 5485.63 447 5565.63 447C5620.03 447 5680.03 467.8 5711.23 507C5718.43 515.8 5721.63 525.4 5721.63 535.8C5721.63 547.8 5716.83 558.2 5706.43 566.2C5699.23 571.8 5690.43 575 5680.83 575C5668.83 575 5659.23 571 5652.03 563.8C5632.83 540.6 5601.63 525.4 5563.23 525.4C5522.43 525.4 5500.83 539.8 5502.43 569.4C5504.03 607 5531.23 612.6 5590.43 629.4C5619.23 637.4 5643.23 645.4 5662.43 654.2C5700.83 671 5731.23 705.4 5731.23 763C5731.23 842.2 5650.43 890.2 5573.62 890.2C5503.23 890.2 5439.23 868.6 5400.83 816.6C5396.03 810.2 5393.63 802.2 5393.63 792.6ZM6146.76 702.2H5882.76C5895.56 765.4 5946.76 803 6004.36 803C6068.36 803 6090.76 780.6 6099.56 775C6109.16 770.2 6117.96 767.8 6126.76 767.8C6149.16 767.8 6167.56 786.2 6167.56 807.8C6167.56 822.2 6160.36 835 6145.16 847C6115.56 871.8 6060.36 890.2 6009.16 890.2C5874.76 890.2 5788.36 799 5787.56 675C5785.96 537.4 5887.56 447.8 5993.16 447C6097.96 447 6197.96 546.2 6195.56 659C6194.76 684.6 6172.36 702.2 6146.76 702.2ZM5883.56 622.2H6093.16V616.6C6090.76 594.2 6080.36 575 6060.36 559C6040.36 543 6017.96 535 5993.16 535C5931.56 535 5894.76 563.8 5883.56 622.2Z" fill="#2D5A27"/>
<path d="M2197.67 1227.33V1302.33C2197.67 1308.33 2195 1313 2189.67 1316.33C2169.33 1329.67 2144 1336.67 2118.33 1337C2052 1338 1997.33 1283 1997.33 1217.33C1997.33 1152 2052 1096.33 2118.33 1097.33C2140.67 1097.67 2162 1102.33 2178.33 1112C2183.67 1115 2186.33 1119.67 2186.33 1125C2186.33 1134 2179.33 1141.33 2171 1141.33C2167.67 1141.33 2164.67 1140.67 2162.33 1139C2148 1132.33 2133.33 1129.33 2118.33 1129C2070.67 1128.33 2031.67 1169 2031.67 1217.33C2031.67 1265.67 2070.67 1306.33 2118.33 1305.67C2133.33 1305.67 2151.67 1301.67 2163.67 1296V1243H2123.33C2114.33 1243 2107.33 1236.33 2107.33 1227.33C2107.33 1218 2114.33 1211.33 2123.33 1211.33H2182C2191 1211.33 2197.67 1218.33 2197.67 1227.33ZM2346.77 1171C2346.77 1181.67 2340.44 1187.33 2332.44 1187.33C2330.44 1187.33 2327.44 1186.67 2323.44 1185.33C2318.77 1183.67 2315.1 1183 2312.44 1183C2291.44 1183 2270.1 1206.67 2270.1 1237.67V1318C2270.1 1327 2263.44 1334 2254.1 1334C2244.77 1334 2238.44 1327.33 2238.44 1318V1175.33C2238.44 1166.33 2245.1 1159.33 2254.1 1159.33C2263.44 1159.33 2270.1 1166.33 2270.1 1175.33V1192.33C2279.77 1170.67 2300.44 1155.67 2325.44 1155.33C2337.1 1155.33 2346.77 1162 2346.77 1171ZM2446.3 1337C2397.3 1337 2358.97 1299 2358.3 1246.67C2357.97 1194.67 2397.97 1155.33 2446.3 1155.33C2494.64 1155.33 2534.64 1194.67 2534.3 1246.67C2533.64 1299 2495.3 1337 2446.3 1337ZM2446.3 1184.67C2414.97 1184.67 2389.97 1210.33 2389.97 1246.67C2389.97 1282.33 2414.97 1308 2446.3 1308C2477.64 1308 2502.64 1282.33 2502.64 1246.67C2502.64 1210.33 2477.64 1184.67 2446.3 1184.67ZM2790.45 1173.67C2790.45 1175.33 2790.12 1177.33 2789.12 1180L2738.12 1324C2735.45 1331 2728.45 1334.33 2721.45 1334C2715.45 1333.33 2710.45 1330.67 2707.79 1324L2673.12 1233.33L2641.12 1324C2638.79 1330.33 2633.12 1333.67 2627.45 1334C2620.79 1334.67 2613.45 1330.67 2611.12 1324L2559.45 1180C2558.79 1178 2558.45 1176 2558.45 1173.67C2558.45 1164.67 2564.79 1157.67 2574.12 1157.67C2581.79 1157.67 2586.45 1161 2588.79 1167.67L2628.45 1280L2660.12 1197C2662.79 1190.33 2667.79 1187 2674.79 1187C2681.45 1187 2685.79 1190.33 2688.45 1197L2720.79 1278.67L2759.79 1167.67C2762.12 1161 2767.45 1157.67 2775.12 1157.67C2783.45 1157.67 2790.45 1164.33 2790.45 1173.67ZM3105.82 1116.67V1317.67C3105.82 1327 3098.48 1334 3088.82 1334C3079.82 1334 3072.48 1327 3072.48 1317.67V1231.33H2954.15V1317.67C2954.15 1327 2946.48 1334 2937.48 1334C2927.82 1334 2921.15 1327 2921.15 1317.67V1116.67C2921.15 1107.67 2928.15 1100.67 2937.82 1100.67C2946.82 1100.67 2954.15 1107.67 2954.15 1116.67V1200.67H3072.48V1116.67C3072.48 1107.67 3080.15 1100.67 3089.15 1100.67C3098.82 1100.67 3105.82 1107.33 3105.82 1116.67ZM3294.07 1254.33H3176.73C3179.73 1286.67 3203.73 1308 3234.73 1308C3256.07 1308 3268.07 1301 3278.4 1291.33C3281.73 1289.33 3285.07 1288.33 3288.07 1288.33C3295.73 1288.33 3301.4 1294.67 3301.4 1301.67C3301.4 1306.33 3298.73 1310.33 3294.73 1314.33C3281.4 1327 3258.73 1337 3236.4 1337C3182.07 1337 3146.07 1300.33 3146.07 1248.33C3146.07 1191.67 3185.07 1155.33 3228.4 1155.33C3271.4 1155.33 3309.73 1191.67 3310.07 1240C3310.07 1248 3302.4 1254.33 3294.07 1254.33ZM3178.07 1227.67H3276.4V1225C3276.4 1213.33 3270.07 1203.67 3260.4 1196C3251.07 1188.33 3240.4 1184.67 3228.4 1184.67C3203.4 1184.67 3183.73 1198.33 3178.07 1227.67ZM3505.8 1173.33V1318C3505.8 1327 3499.14 1334 3489.8 1334C3480.47 1334 3474.14 1327.33 3474.14 1318V1309.33C3462.47 1325 3441.14 1336.67 3418.14 1337C3373.14 1337.67 3337.47 1298.33 3337.47 1246.33C3337.47 1194.67 3373.47 1154.67 3417.14 1155.33C3440.8 1155.67 3462.14 1166.33 3474.14 1181.33V1173.33C3474.14 1164 3480.47 1157 3489.8 1157C3499.14 1157 3505.8 1163.67 3505.8 1173.33ZM3475.47 1246.33C3475.47 1211.67 3453.14 1184.67 3421.8 1184.67C3390.47 1184.67 3368.14 1211 3368.14 1246.33C3368.14 1281.67 3390.47 1308 3421.8 1308C3453.14 1308 3475.47 1281.67 3475.47 1246.33ZM3571.22 1334C3562.22 1334 3555.56 1327 3555.56 1318V1103.33C3555.56 1094.33 3562.56 1087.33 3571.56 1087.33C3580.56 1087.33 3587.22 1094.33 3587.22 1103.33V1318C3587.22 1327 3580.22 1334 3571.22 1334ZM3711.55 1190.33H3683.88V1289.67C3683.88 1300.67 3688.88 1306.33 3698.88 1306.33C3701.88 1306.33 3708.55 1304 3711.55 1304C3717.22 1304 3721.88 1309.33 3721.88 1317C3721.88 1326.33 3709.22 1334 3695.88 1334C3675.55 1334 3652.22 1331 3652.22 1291V1190.33H3632.88C3624.55 1190.33 3618.22 1184 3618.22 1175.67C3618.22 1167.33 3624.55 1161.33 3632.88 1161.33H3652.22V1133.33C3652.22 1124.33 3658.88 1117.33 3668.22 1117.33C3677.22 1117.33 3683.88 1124.33 3683.88 1133.33V1161.33H3711.55C3719.88 1161.33 3726.22 1167.67 3726.22 1176C3726.22 1184.33 3719.88 1190.33 3711.55 1190.33ZM3908.84 1229V1318C3908.84 1327 3902.18 1334 3892.84 1334C3883.84 1334 3877.18 1327 3877.18 1318V1229C3877.18 1200 3864.84 1185.67 3840.51 1185.67C3827.51 1185.67 3816.51 1190 3807.84 1198.33C3799.18 1206.67 3794.84 1216.67 3794.84 1229V1318C3794.84 1327 3788.18 1334 3778.84 1334C3769.51 1334 3763.18 1327.33 3763.18 1318V1103.33C3763.18 1094.33 3769.84 1087.33 3778.84 1087.33C3788.18 1087.33 3794.84 1094.33 3794.84 1103.33V1187.67C3805.84 1170.33 3827.51 1156.33 3850.18 1156.33C3889.18 1156.33 3908.84 1180.67 3908.84 1229ZM3952.54 1121V1115.67C3952.54 1105 3958.54 1101 3970.88 1101C3983.21 1101 3988.54 1105.33 3988.54 1115.67V1121C3988.54 1131.67 3982.88 1135.67 3970.54 1135.67C3957.54 1135.67 3952.54 1131.33 3952.54 1121ZM3970.21 1334C3961.21 1334 3954.54 1327 3954.54 1318V1173.67C3954.54 1164.67 3961.21 1157.67 3970.21 1157.67C3979.54 1157.67 3986.21 1164.67 3986.21 1173.67V1318C3986.21 1327 3979.54 1334 3970.21 1334ZM4169.07 1254.33H4051.73C4054.73 1286.67 4078.73 1308 4109.73 1308C4131.07 1308 4143.07 1301 4153.4 1291.33C4156.73 1289.33 4160.07 1288.33 4163.07 1288.33C4170.73 1288.33 4176.4 1294.67 4176.4 1301.67C4176.4 1306.33 4173.73 1310.33 4169.73 1314.33C4156.4 1327 4133.73 1337 4111.4 1337C4057.07 1337 4021.07 1300.33 4021.07 1248.33C4021.07 1191.67 4060.07 1155.33 4103.4 1155.33C4146.4 1155.33 4184.73 1191.67 4185.07 1240C4185.07 1248 4177.4 1254.33 4169.07 1254.33ZM4053.07 1227.67H4151.4V1225C4151.4 1213.33 4145.07 1203.67 4135.4 1196C4126.07 1188.33 4115.4 1184.67 4103.4 1184.67C4078.4 1184.67 4058.73 1198.33 4053.07 1227.67ZM4330.17 1171C4330.17 1181.67 4323.84 1187.33 4315.84 1187.33C4313.84 1187.33 4310.84 1186.67 4306.84 1185.33C4302.17 1183.67 4298.5 1183 4295.84 1183C4274.84 1183 4253.5 1206.67 4253.5 1237.67V1318C4253.5 1327 4246.84 1334 4237.5 1334C4228.17 1334 4221.84 1327.33 4221.84 1318V1175.33C4221.84 1166.33 4228.5 1159.33 4237.5 1159.33C4246.84 1159.33 4253.5 1166.33 4253.5 1175.33V1192.33C4263.17 1170.67 4283.84 1155.67 4308.84 1155.33C4320.5 1155.33 4330.17 1162 4330.17 1171ZM4363.86 1377C4356.2 1377 4350.86 1373 4350.86 1366C4350.86 1357.33 4359.86 1356.33 4363.53 1355C4369.86 1352 4373.2 1346.67 4373.2 1340.33C4373.2 1335.33 4368.86 1331.67 4362.53 1331.67C4358.86 1331.67 4355.86 1332.67 4353.53 1334C4349.2 1332 4346.86 1329 4346.86 1323.33C4347.2 1312.67 4360.86 1303 4373.2 1303C4389.53 1303 4399.53 1313.67 4399.53 1332C4399.53 1348.67 4381.2 1377 4363.86 1377ZM4723.38 1227.33V1302.33C4723.38 1308.33 4720.72 1313 4715.38 1316.33C4695.05 1329.67 4669.72 1336.67 4644.05 1337C4577.72 1338 4523.05 1283 4523.05 1217.33C4523.05 1152 4577.72 1096.33 4644.05 1097.33C4666.38 1097.67 4687.72 1102.33 4704.05 1112C4709.38 1115 4712.05 1119.67 4712.05 1125C4712.05 1134 4705.05 1141.33 4696.72 1141.33C4693.38 1141.33 4690.38 1140.67 4688.05 1139C4673.72 1132.33 4659.05 1129.33 4644.05 1129C4596.38 1128.33 4557.38 1169 4557.38 1217.33C4557.38 1265.67 4596.38 1306.33 4644.05 1305.67C4659.05 1305.67 4677.38 1301.67 4689.38 1296V1243H4649.05C4640.05 1243 4633.05 1236.33 4633.05 1227.33C4633.05 1218 4640.05 1211.33 4649.05 1211.33H4707.72C4716.72 1211.33 4723.38 1218.33 4723.38 1227.33ZM4841.49 1337C4792.49 1337 4754.15 1299 4753.49 1246.67C4753.15 1194.67 4793.15 1155.33 4841.49 1155.33C4889.82 1155.33 4929.82 1194.67 4929.49 1246.67C4928.82 1299 4890.49 1337 4841.49 1337ZM4841.49 1184.67C4810.15 1184.67 4785.15 1210.33 4785.15 1246.67C4785.15 1282.33 4810.15 1308 4841.49 1308C4872.82 1308 4897.82 1282.33 4897.82 1246.67C4897.82 1210.33 4872.82 1184.67 4841.49 1184.67ZM5207.08 1171.67C5207.08 1173.67 5206.42 1176.33 5204.75 1180L5141.42 1324C5138.75 1329.67 5133.42 1333.33 5127.75 1334C5120.75 1334.33 5114.08 1331 5111.08 1324L5047.75 1180C5046.75 1176.67 5046.08 1174 5046.08 1171.67C5046.08 1164.67 5052.42 1157.67 5061.75 1157.67C5068.42 1157.67 5074.08 1161 5077.08 1167.67L5127.42 1284.67L5177.75 1167.67C5180.75 1161 5185.75 1157.67 5192.08 1157.67C5200.42 1157.67 5207.08 1164 5207.08 1171.67ZM5377.4 1254.33H5260.07C5263.07 1286.67 5287.07 1308 5318.07 1308C5339.4 1308 5351.4 1301 5361.73 1291.33C5365.07 1289.33 5368.4 1288.33 5371.4 1288.33C5379.07 1288.33 5384.73 1294.67 5384.73 1301.67C5384.73 1306.33 5382.07 1310.33 5378.07 1314.33C5364.73 1327 5342.07 1337 5319.73 1337C5265.4 1337 5229.4 1300.33 5229.4 1248.33C5229.4 1191.67 5268.4 1155.33 5311.73 1155.33C5354.73 1155.33 5393.07 1191.67 5393.4 1240C5393.4 1248 5385.73 1254.33 5377.4 1254.33ZM5261.4 1227.67H5359.73V1225C5359.73 1213.33 5353.4 1203.67 5343.73 1196C5334.4 1188.33 5323.73 1184.67 5311.73 1184.67C5286.73 1184.67 5267.07 1198.33 5261.4 1227.67ZM5590.87 1173.33V1320C5590.87 1374.33 5552.87 1400.33 5503.87 1400.33C5494.87 1400.33 5484.53 1398.67 5472.53 1395.67C5460.87 1392.67 5453.2 1389.33 5449.87 1386C5442.87 1382.33 5439.53 1378 5439.53 1372.67C5439.53 1371.33 5439.87 1369.67 5440.87 1367.33C5443.2 1361.67 5447.53 1359 5453.2 1359C5456.2 1359 5459.2 1359.67 5462.53 1361C5480.2 1368 5494.2 1371.33 5504.2 1371.33C5539.87 1371.33 5559.2 1353 5559.2 1323.67V1305.67C5554.53 1314.33 5546.53 1321.67 5535.53 1328C5524.53 1334 5513.2 1336.67 5500.87 1337C5455.2 1337.67 5418.2 1298.33 5418.2 1246.33C5418.2 1194.67 5455.2 1154.67 5500.2 1155.33C5524.53 1155.67 5547.2 1168 5559.2 1184V1173.33C5559.2 1164 5565.53 1157 5574.87 1157C5584.2 1157 5590.87 1163.67 5590.87 1173.33ZM5560.53 1246.33C5560.53 1211 5537.2 1184.67 5504.53 1184.67C5472.53 1184.67 5448.87 1211.33 5448.87 1246.33C5448.87 1281.33 5472.53 1308 5504.53 1308C5537.2 1308 5560.53 1282.33 5560.53 1246.33ZM5794.22 1173.33V1318C5794.22 1327 5787.55 1334 5778.22 1334C5768.88 1334 5762.55 1327.33 5762.55 1318V1309.33C5750.88 1325 5729.55 1336.67 5706.55 1337C5661.55 1337.67 5625.88 1298.33 5625.88 1246.33C5625.88 1194.67 5661.88 1154.67 5705.55 1155.33C5729.22 1155.67 5750.55 1166.33 5762.55 1181.33V1173.33C5762.55 1164 5768.88 1157 5778.22 1157C5787.55 1157 5794.22 1163.67 5794.22 1173.33ZM5763.88 1246.33C5763.88 1211.67 5741.55 1184.67 5710.22 1184.67C5678.88 1184.67 5656.55 1211 5656.55 1246.33C5656.55 1281.67 5678.88 1308 5710.22 1308C5741.55 1308 5763.88 1281.67 5763.88 1246.33ZM5990.3 1227.33V1318C5990.3 1327 5983.64 1334 5974.3 1334C5965.3 1334 5958.64 1327 5958.64 1318V1227.67C5958.64 1201.33 5947.3 1184.67 5920.3 1184.67C5893.3 1184.67 5872.97 1204.33 5872.97 1227.67V1318C5872.97 1327 5866.3 1334 5856.97 1334C5847.64 1334 5841.3 1327.33 5841.3 1318V1175.33C5841.3 1166.33 5847.97 1159.33 5856.97 1159.33C5866.3 1159.33 5872.97 1166.33 5872.97 1175.33V1187C5884.64 1169.33 5906.64 1155.33 5930.3 1155.33C5970.3 1155.33 5990.3 1179.33 5990.3 1227.33Z" fill="#BA951B"/>
</svg>
