<svg width="8735" height="1641" viewBox="0 0 8735 1641" fill="none" xmlns="http://www.w3.org/2000/svg">
<path d="M945.027 963.494C945.862 962.126 947.328 961.499 948.302 962.093C954.272 965.738 960.039 969.619 965.601 973.725L967.218 974.93C1104.26 1077.9 1115.22 1318.6 988.107 1526.84L970.405 1555.84C816.833 1462.08 797.298 1213.26 924.976 996.497L926.484 993.948C927.77 991.788 929.069 989.632 930.384 987.479L945.027 963.494ZM239.543 207.639C635.875 207.687 963.735 465.018 1018.23 799.749L552.416 515.463C552.672 515.638 763.059 659.317 880.285 761.614C897.637 776.756 915.458 792.78 933.552 809.437C934.467 810.089 935.364 810.797 936.237 811.56C1171.11 1016.79 1243.81 1208.44 1356.45 1477.37C1356.32 1477.14 1210.56 1220.14 1070.96 1049.75C1010.19 975.57 964.881 929.819 933.091 901.801C514.536 883.414 181.611 579.661 181.61 207.639H239.543ZM0 1288.42C57.1061 1007.39 435.619 846.542 848.712 925.835C852.817 926.623 856.926 927.434 861.037 928.27L906.837 937.576C909.449 938.107 911.274 939.976 910.913 941.75C908.702 952.632 906.005 963.333 902.841 973.846C823.997 1235.77 454.554 1380.75 55.3643 1299.67L0 1288.42ZM1362.9 201.191C1362.9 201.215 1362.91 201.238 1362.92 201.261C1433.7 465.549 1311.54 729.963 1088.44 807.2C1079.48 810.3 1070.37 813.098 1061.09 815.583C1059.58 815.988 1057.98 814.915 1057.52 813.186L1049.39 782.863C1048.66 780.141 1047.95 777.419 1047.26 774.697C977.95 500.789 1113.62 228.776 1353.09 164.607L1362.9 201.191Z" fill="#2D5A27"/>
<path d="M2350.16 1205.76C2350.16 1248 2316.88 1280 2272.08 1280H1856.08C1811.28 1280 1778 1246.72 1778 1201.92V462.08C1778 417.28 1812.56 384 1859.92 384C1902.16 384 1938 417.28 1938 462.08V1130.24H2272.08C2316.88 1130.24 2350.16 1160.96 2350.16 1205.76ZM3020.27 990.72H2597.87C2618.35 1091.84 2700.27 1152 2792.43 1152C2894.83 1152 2930.67 1116.16 2944.75 1107.2C2960.11 1099.52 2974.19 1095.68 2988.27 1095.68C3024.11 1095.68 3053.55 1125.12 3053.55 1159.68C3053.55 1182.72 3042.03 1203.2 3017.71 1222.4C2970.35 1262.08 2882.03 1291.52 2800.11 1291.52C2585.07 1291.52 2446.83 1145.6 2445.55 947.2C2442.99 727.04 2605.55 583.68 2774.51 582.4C2942.19 582.4 3102.19 741.12 3098.35 921.6C3097.07 962.56 3061.23 990.72 3020.27 990.72ZM2599.15 862.72H2934.51V853.76C2930.67 817.92 2914.03 787.2 2882.03 761.6C2850.03 736 2814.19 723.2 2774.51 723.2C2675.95 723.2 2617.07 769.28 2599.15 862.72ZM3862.49 660.48V1201.92C3862.49 1246.72 3830.49 1280 3785.69 1280C3740.89 1280 3710.17 1248 3708.89 1203.2C3666.65 1253.12 3588.57 1291.52 3507.93 1291.52C3331.29 1291.52 3193.05 1144.32 3193.05 938.24C3193.05 732.16 3330.01 582.4 3502.81 582.4C3584.73 582.4 3658.97 615.68 3708.89 661.76V660.48C3708.89 615.68 3740.89 582.4 3785.69 582.4C3830.49 582.4 3862.49 614.4 3862.49 660.48ZM3715.29 938.24C3715.29 876.8 3697.37 825.6 3662.81 784.64C3628.25 743.68 3582.17 723.2 3527.13 723.2C3472.09 723.2 3427.29 743.68 3392.73 784.64C3358.17 825.6 3340.25 876.8 3340.25 938.24C3340.25 999.68 3356.89 1050.88 3391.45 1091.84C3426.01 1131.52 3472.09 1152 3527.13 1152C3582.17 1152 3628.25 1131.52 3662.81 1091.84C3697.37 1050.88 3715.29 999.68 3715.29 938.24ZM4278.55 547.84V608H4395.03C4435.99 608 4466.71 637.44 4466.71 678.4C4466.71 719.36 4435.99 748.8 4395.03 748.8H4278.55V1201.92C4278.55 1246.72 4246.55 1280 4201.75 1280C4156.95 1280 4124.95 1246.72 4124.95 1201.92V748.8H4055.83C4014.87 748.8 3984.15 719.36 3984.15 678.4C3984.15 637.44 4014.87 608 4055.83 608H4124.95V549.12C4124.95 421.12 4215.83 332.8 4380.95 332.8C4443.67 332.8 4498.71 358.4 4498.71 410.88C4498.71 451.84 4471.83 480 4437.27 480C4428.31 480 4419.35 477.44 4409.11 476.16C4388.63 471.04 4371.99 468.48 4357.91 468.48C4300.31 468.48 4278.55 508.16 4278.55 547.84ZM4924.01 1191.68C4900.97 1171.2 4889.45 1148.16 4889.45 1123.84C4889.45 1084.16 4922.73 1049.6 4963.69 1049.6C4980.33 1049.6 4994.41 1054.72 5007.21 1064.96C5075.05 1121.28 5133.93 1145.6 5222.25 1145.6C5269.61 1145.6 5310.57 1135.36 5345.13 1113.6C5379.69 1091.84 5397.61 1066.24 5397.61 1034.24C5397.61 957.44 5332.33 916.48 5183.85 894.72C4996.97 867.84 4903.53 780.8 4903.53 633.6C4903.53 471.04 5043.05 371.2 5223.53 371.2C5331.05 371.2 5430.89 407.04 5493.61 459.52C5517.93 478.72 5530.73 501.76 5530.73 527.36C5530.73 567.04 5497.45 601.6 5457.77 601.6C5444.97 601.6 5433.45 597.76 5423.21 590.08C5401.45 572.16 5369.45 555.52 5329.77 541.44C5290.09 526.08 5255.53 518.4 5223.53 518.4C5116.01 518.4 5054.57 561.92 5054.57 627.2C5054.57 700.16 5113.45 732.16 5242.73 756.48C5460.33 797.44 5548.65 852.48 5551.21 1025.28C5552.49 1187.84 5397.61 1291.52 5222.25 1291.52C5099.37 1291.52 5007.21 1264.64 4924.01 1191.68ZM6221.52 990.72H5799.12C5819.6 1091.84 5901.52 1152 5993.68 1152C6096.08 1152 6131.92 1116.16 6146 1107.2C6161.36 1099.52 6175.44 1095.68 6189.52 1095.68C6225.36 1095.68 6254.8 1125.12 6254.8 1159.68C6254.8 1182.72 6243.28 1203.2 6218.96 1222.4C6171.6 1262.08 6083.28 1291.52 6001.36 1291.52C5786.32 1291.52 5648.08 1145.6 5646.8 947.2C5644.24 727.04 5806.8 583.68 5975.76 582.4C6143.44 582.4 6303.44 741.12 6299.6 921.6C6298.32 962.56 6262.48 990.72 6221.52 990.72ZM5800.4 862.72H6135.76V853.76C6131.92 817.92 6115.28 787.2 6083.28 761.6C6051.28 736 6015.44 723.2 5975.76 723.2C5877.2 723.2 5818.32 769.28 5800.4 862.72ZM7024.18 874.24V1201.92C7024.18 1246.72 6992.18 1280 6947.38 1280C6902.58 1280 6870.58 1246.72 6870.58 1201.92V874.24C6870.58 780.8 6836.02 723.2 6740.02 723.2C6641.46 723.2 6581.3 787.2 6581.3 874.24V1201.92C6581.3 1246.72 6549.3 1280 6504.5 1280C6459.7 1280 6427.7 1246.72 6427.7 1201.92V673.28C6427.7 628.48 6459.7 595.2 6504.5 595.2C6549.3 595.2 6581.3 628.48 6581.3 673.28V695.04C6627.38 633.6 6705.46 582.4 6793.78 582.4C6880.82 582.4 6940.98 608 6974.26 660.48C7007.54 711.68 7024.18 783.36 7024.18 874.24ZM7139 1135.36C7139 1113.6 7150.52 1094.4 7172.28 1079.04C7183.8 1071.36 7196.6 1067.52 7209.4 1067.52C7227.32 1067.52 7243.96 1075.2 7260.6 1091.84C7311.8 1144.32 7363 1171.2 7441.08 1169.92C7507.64 1168.64 7540.92 1141.76 7540.92 1094.4C7540.92 1044.48 7497.4 1025.28 7401.4 999.68C7351.48 985.6 7311.8 972.8 7279.8 958.72C7218.36 931.84 7165.88 878.08 7165.88 784.64C7165.88 661.76 7286.2 582.4 7414.2 582.4C7501.24 582.4 7597.24 615.68 7647.16 678.4C7658.68 692.48 7663.8 707.84 7663.8 724.48C7663.8 743.68 7656.12 760.32 7639.48 773.12C7627.96 782.08 7613.88 787.2 7598.52 787.2C7579.32 787.2 7563.96 780.8 7552.44 769.28C7521.72 732.16 7471.8 707.84 7410.36 707.84C7345.08 707.84 7310.52 730.88 7313.08 778.24C7315.64 838.4 7359.16 847.36 7453.88 874.24C7499.96 887.04 7538.36 899.84 7569.08 913.92C7630.52 940.8 7679.16 995.84 7679.16 1088C7679.16 1214.72 7549.88 1291.52 7427 1291.52C7314.36 1291.52 7211.96 1256.96 7150.52 1173.76C7142.84 1163.52 7139 1150.72 7139 1135.36ZM8344.02 990.72H7921.62C7942.1 1091.84 8024.02 1152 8116.18 1152C8218.58 1152 8254.42 1116.16 8268.5 1107.2C8283.86 1099.52 8297.94 1095.68 8312.02 1095.68C8347.86 1095.68 8377.3 1125.12 8377.3 1159.68C8377.3 1182.72 8365.78 1203.2 8341.46 1222.4C8294.1 1262.08 8205.78 1291.52 8123.86 1291.52C7908.82 1291.52 7770.58 1145.6 7769.3 947.2C7766.74 727.04 7929.3 583.68 8098.26 582.4C8265.94 582.4 8425.94 741.12 8422.1 921.6C8420.82 962.56 8384.98 990.72 8344.02 990.72ZM7922.9 862.72H8258.26V853.76C8254.42 817.92 8237.78 787.2 8205.78 761.6C8173.78 736 8137.94 723.2 8098.26 723.2C7999.7 723.2 7940.82 769.28 7922.9 862.72Z" fill="#2D5A27"/>
</svg>
