<svg width="4241" height="4952" viewBox="0 0 4241 4952" fill="none" xmlns="http://www.w3.org/2000/svg">
<path d="M417.6 4371.6C417.6 4398 396.8 4418 368.8 4418H108.8C80.8 4418 60 4397.2 60 4369.2V3906.8C60 3878.8 81.6 3858 111.2 3858C137.6 3858 160 3878.8 160 3906.8V4324.4H368.8C396.8 4324.4 417.6 4343.6 417.6 4371.6ZM836.419 4237.2H572.419C585.219 4300.4 636.419 4338 694.019 4338C758.019 4338 780.419 4315.6 789.219 4310C798.819 4305.2 807.619 4302.8 816.419 4302.8C838.819 4302.8 857.219 4321.2 857.219 4342.8C857.219 4357.2 850.019 4370 834.819 4382C805.219 4406.8 750.019 4425.2 698.819 4425.2C564.419 4425.2 478.019 4334 477.219 4210C475.619 4072.4 577.219 3982.8 682.819 3982C787.619 3982 887.619 4081.2 885.219 4194C884.419 4219.6 862.019 4237.2 836.419 4237.2ZM573.219 4157.2H782.819V4151.6C780.419 4129.2 770.019 4110 750.019 4094C730.019 4078 707.619 4070 682.819 4070C621.219 4070 584.419 4098.8 573.219 4157.2ZM1362.81 4030.8V4369.2C1362.81 4397.2 1342.81 4418 1314.81 4418C1286.81 4418 1267.61 4398 1266.81 4370C1240.41 4401.2 1191.61 4425.2 1141.21 4425.2C1030.81 4425.2 944.406 4333.2 944.406 4204.4C944.406 4075.6 1030.01 3982 1138.01 3982C1189.21 3982 1235.61 4002.8 1266.81 4031.6V4030.8C1266.81 4002.8 1286.81 3982 1314.81 3982C1342.81 3982 1362.81 4002 1362.81 4030.8ZM1270.81 4204.4C1270.81 4166 1259.61 4134 1238.01 4108.4C1216.41 4082.8 1187.61 4070 1153.21 4070C1118.81 4070 1090.81 4082.8 1069.21 4108.4C1047.61 4134 1036.41 4166 1036.41 4204.4C1036.41 4242.8 1046.81 4274.8 1068.41 4300.4C1090.01 4325.2 1118.81 4338 1153.21 4338C1187.61 4338 1216.41 4325.2 1238.01 4300.4C1259.61 4274.8 1270.81 4242.8 1270.81 4204.4ZM1622.84 3960.4V3998H1695.64C1721.24 3998 1740.44 4016.4 1740.44 4042C1740.44 4067.6 1721.24 4086 1695.64 4086H1622.84V4369.2C1622.84 4397.2 1602.84 4418 1574.84 4418C1546.84 4418 1526.84 4397.2 1526.84 4369.2V4086H1483.64C1458.04 4086 1438.84 4067.6 1438.84 4042C1438.84 4016.4 1458.04 3998 1483.64 3998H1526.84V3961.2C1526.84 3881.2 1583.64 3826 1686.84 3826C1726.04 3826 1760.44 3842 1760.44 3874.8C1760.44 3900.4 1743.64 3918 1722.04 3918C1716.44 3918 1710.84 3916.4 1704.44 3915.6C1691.64 3912.4 1681.24 3910.8 1672.44 3910.8C1636.44 3910.8 1622.84 3935.6 1622.84 3960.4ZM2026.26 4362.8C2011.86 4350 2004.66 4335.6 2004.66 4320.4C2004.66 4295.6 2025.46 4274 2051.06 4274C2061.46 4274 2070.26 4277.2 2078.26 4283.6C2120.66 4318.8 2157.46 4334 2212.66 4334C2242.26 4334 2267.86 4327.6 2289.46 4314C2311.06 4300.4 2322.26 4284.4 2322.26 4264.4C2322.26 4216.4 2281.46 4190.8 2188.66 4177.2C2071.86 4160.4 2013.46 4106 2013.46 4014C2013.46 3912.4 2100.66 3850 2213.46 3850C2280.66 3850 2343.06 3872.4 2382.26 3905.2C2397.46 3917.2 2405.46 3931.6 2405.46 3947.6C2405.46 3972.4 2384.66 3994 2359.86 3994C2351.86 3994 2344.66 3991.6 2338.26 3986.8C2324.66 3975.6 2304.66 3965.2 2279.86 3956.4C2255.06 3946.8 2233.46 3942 2213.46 3942C2146.26 3942 2107.86 3969.2 2107.86 4010C2107.86 4055.6 2144.66 4075.6 2225.46 4090.8C2361.46 4116.4 2416.66 4150.8 2418.26 4258.8C2419.06 4360.4 2322.26 4425.2 2212.66 4425.2C2135.86 4425.2 2078.26 4408.4 2026.26 4362.8ZM2837.2 4237.2H2573.2C2586 4300.4 2637.2 4338 2694.8 4338C2758.8 4338 2781.2 4315.6 2790 4310C2799.6 4305.2 2808.4 4302.8 2817.2 4302.8C2839.6 4302.8 2858 4321.2 2858 4342.8C2858 4357.2 2850.8 4370 2835.6 4382C2806 4406.8 2750.8 4425.2 2699.6 4425.2C2565.2 4425.2 2478.8 4334 2478 4210C2476.4 4072.4 2578 3982.8 2683.6 3982C2788.4 3982 2888.4 4081.2 2886 4194C2885.2 4219.6 2862.8 4237.2 2837.2 4237.2ZM2574 4157.2H2783.6V4151.6C2781.2 4129.2 2770.8 4110 2750.8 4094C2730.8 4078 2708.4 4070 2683.6 4070C2622 4070 2585.2 4098.8 2574 4157.2ZM3338.86 4164.4V4369.2C3338.86 4397.2 3318.86 4418 3290.86 4418C3262.86 4418 3242.86 4397.2 3242.86 4369.2V4164.4C3242.86 4106 3221.26 4070 3161.26 4070C3099.66 4070 3062.06 4110 3062.06 4164.4V4369.2C3062.06 4397.2 3042.06 4418 3014.06 4418C2986.06 4418 2966.06 4397.2 2966.06 4369.2V4038.8C2966.06 4010.8 2986.06 3990 3014.06 3990C3042.06 3990 3062.06 4010.8 3062.06 4038.8V4052.4C3090.86 4014 3139.66 3982 3194.86 3982C3249.26 3982 3286.86 3998 3307.66 4030.8C3328.46 4062.8 3338.86 4107.6 3338.86 4164.4ZM3410.63 4327.6C3410.63 4314 3417.83 4302 3431.43 4292.4C3438.63 4287.6 3446.63 4285.2 3454.63 4285.2C3465.83 4285.2 3476.23 4290 3486.63 4300.4C3518.63 4333.2 3550.63 4350 3599.43 4349.2C3641.03 4348.4 3661.83 4331.6 3661.83 4302C3661.83 4270.8 3634.63 4258.8 3574.63 4242.8C3543.43 4234 3518.63 4226 3498.63 4217.2C3460.23 4200.4 3427.43 4166.8 3427.43 4108.4C3427.43 4031.6 3502.63 3982 3582.63 3982C3637.03 3982 3697.03 4002.8 3728.23 4042C3735.43 4050.8 3738.63 4060.4 3738.63 4070.8C3738.63 4082.8 3733.83 4093.2 3723.43 4101.2C3716.23 4106.8 3707.43 4110 3697.83 4110C3685.83 4110 3676.23 4106 3669.03 4098.8C3649.83 4075.6 3618.63 4060.4 3580.23 4060.4C3539.43 4060.4 3517.83 4074.8 3519.43 4104.4C3521.03 4142 3548.23 4147.6 3607.43 4164.4C3636.23 4172.4 3660.23 4180.4 3679.43 4189.2C3717.83 4206 3748.23 4240.4 3748.23 4298C3748.23 4377.2 3667.43 4425.2 3590.62 4425.2C3520.23 4425.2 3456.23 4403.6 3417.83 4351.6C3413.03 4345.2 3410.63 4337.2 3410.63 4327.6ZM4163.76 4237.2H3899.76C3912.56 4300.4 3963.76 4338 4021.36 4338C4085.36 4338 4107.76 4315.6 4116.56 4310C4126.16 4305.2 4134.96 4302.8 4143.76 4302.8C4166.16 4302.8 4184.56 4321.2 4184.56 4342.8C4184.56 4357.2 4177.36 4370 4162.16 4382C4132.56 4406.8 4077.36 4425.2 4026.16 4425.2C3891.76 4425.2 3805.36 4334 3804.56 4210C3802.96 4072.4 3904.56 3982.8 4010.16 3982C4114.96 3982 4214.96 4081.2 4212.56 4194C4211.76 4219.6 4189.36 4237.2 4163.76 4237.2ZM3900.56 4157.2H4110.16V4151.6C4107.76 4129.2 4097.36 4110 4077.36 4094C4057.36 4078 4034.96 4070 4010.16 4070C3948.56 4070 3911.76 4098.8 3900.56 4157.2Z" fill="#2D5A27"/>
<path d="M319.667 4762.33V4837.33C319.667 4843.33 317 4848 311.667 4851.33C291.333 4864.67 266 4871.67 240.333 4872C174 4873 119.333 4818 119.333 4752.33C119.333 4687 174 4631.33 240.333 4632.33C262.667 4632.67 284 4637.33 300.333 4647C305.667 4650 308.333 4654.67 308.333 4660C308.333 4669 301.333 4676.33 293 4676.33C289.667 4676.33 286.667 4675.67 284.333 4674C270 4667.33 255.333 4664.33 240.333 4664C192.667 4663.33 153.667 4704 153.667 4752.33C153.667 4800.67 192.667 4841.33 240.333 4840.67C255.333 4840.67 273.667 4836.67 285.667 4831V4778H245.333C236.333 4778 229.333 4771.33 229.333 4762.33C229.333 4753 236.333 4746.33 245.333 4746.33H304C313 4746.33 319.667 4753.33 319.667 4762.33ZM468.771 4706C468.771 4716.67 462.438 4722.33 454.438 4722.33C452.438 4722.33 449.438 4721.67 445.438 4720.33C440.771 4718.67 437.104 4718 434.438 4718C413.438 4718 392.104 4741.67 392.104 4772.67V4853C392.104 4862 385.438 4869 376.104 4869C366.771 4869 360.438 4862.33 360.438 4853V4710.33C360.438 4701.33 367.104 4694.33 376.104 4694.33C385.438 4694.33 392.104 4701.33 392.104 4710.33V4727.33C401.771 4705.67 422.438 4690.67 447.438 4690.33C459.104 4690.33 468.771 4697 468.771 4706ZM568.305 4872C519.305 4872 480.971 4834 480.305 4781.67C479.971 4729.67 519.971 4690.33 568.305 4690.33C616.638 4690.33 656.638 4729.67 656.305 4781.67C655.638 4834 617.305 4872 568.305 4872ZM568.305 4719.67C536.971 4719.67 511.971 4745.33 511.971 4781.67C511.971 4817.33 536.971 4843 568.305 4843C599.638 4843 624.638 4817.33 624.638 4781.67C624.638 4745.33 599.638 4719.67 568.305 4719.67ZM912.453 4708.67C912.453 4710.33 912.12 4712.33 911.12 4715L860.12 4859C857.453 4866 850.453 4869.33 843.453 4869C837.453 4868.33 832.453 4865.67 829.786 4859L795.12 4768.33L763.12 4859C760.786 4865.33 755.12 4868.67 749.453 4869C742.786 4869.67 735.453 4865.67 733.12 4859L681.453 4715C680.786 4713 680.453 4711 680.453 4708.67C680.453 4699.67 686.786 4692.67 696.12 4692.67C703.786 4692.67 708.453 4696 710.786 4702.67L750.453 4815L782.12 4732C784.786 4725.33 789.786 4722 796.786 4722C803.453 4722 807.786 4725.33 810.453 4732L842.786 4813.67L881.786 4702.67C884.12 4696 889.453 4692.67 897.12 4692.67C905.453 4692.67 912.453 4699.33 912.453 4708.67ZM1227.82 4651.67V4852.67C1227.82 4862 1220.48 4869 1210.82 4869C1201.82 4869 1194.48 4862 1194.48 4852.67V4766.33H1076.15V4852.67C1076.15 4862 1068.48 4869 1059.48 4869C1049.82 4869 1043.15 4862 1043.15 4852.67V4651.67C1043.15 4642.67 1050.15 4635.67 1059.82 4635.67C1068.82 4635.67 1076.15 4642.67 1076.15 4651.67V4735.67H1194.48V4651.67C1194.48 4642.67 1202.15 4635.67 1211.15 4635.67C1220.82 4635.67 1227.82 4642.33 1227.82 4651.67ZM1416.07 4789.33H1298.73C1301.73 4821.67 1325.73 4843 1356.73 4843C1378.07 4843 1390.07 4836 1400.4 4826.33C1403.73 4824.33 1407.07 4823.33 1410.07 4823.33C1417.73 4823.33 1423.4 4829.67 1423.4 4836.67C1423.4 4841.33 1420.73 4845.33 1416.73 4849.33C1403.4 4862 1380.73 4872 1358.4 4872C1304.07 4872 1268.07 4835.33 1268.07 4783.33C1268.07 4726.67 1307.07 4690.33 1350.4 4690.33C1393.4 4690.33 1431.73 4726.67 1432.07 4775C1432.07 4783 1424.4 4789.33 1416.07 4789.33ZM1300.07 4762.67H1398.4V4760C1398.4 4748.33 1392.07 4738.67 1382.4 4731C1373.07 4723.33 1362.4 4719.67 1350.4 4719.67C1325.4 4719.67 1305.73 4733.33 1300.07 4762.67ZM1627.8 4708.33V4853C1627.8 4862 1621.14 4869 1611.8 4869C1602.47 4869 1596.14 4862.33 1596.14 4853V4844.33C1584.47 4860 1563.14 4871.67 1540.14 4872C1495.14 4872.67 1459.47 4833.33 1459.47 4781.33C1459.47 4729.67 1495.47 4689.67 1539.14 4690.33C1562.8 4690.67 1584.14 4701.33 1596.14 4716.33V4708.33C1596.14 4699 1602.47 4692 1611.8 4692C1621.14 4692 1627.8 4698.67 1627.8 4708.33ZM1597.47 4781.33C1597.47 4746.67 1575.14 4719.67 1543.8 4719.67C1512.47 4719.67 1490.14 4746 1490.14 4781.33C1490.14 4816.67 1512.47 4843 1543.8 4843C1575.14 4843 1597.47 4816.67 1597.47 4781.33ZM1693.22 4869C1684.22 4869 1677.56 4862 1677.56 4853V4638.33C1677.56 4629.33 1684.56 4622.33 1693.56 4622.33C1702.56 4622.33 1709.22 4629.33 1709.22 4638.33V4853C1709.22 4862 1702.22 4869 1693.22 4869ZM1833.55 4725.33H1805.88V4824.67C1805.88 4835.67 1810.88 4841.33 1820.88 4841.33C1823.88 4841.33 1830.55 4839 1833.55 4839C1839.22 4839 1843.88 4844.33 1843.88 4852C1843.88 4861.33 1831.22 4869 1817.88 4869C1797.55 4869 1774.22 4866 1774.22 4826V4725.33H1754.88C1746.55 4725.33 1740.22 4719 1740.22 4710.67C1740.22 4702.33 1746.55 4696.33 1754.88 4696.33H1774.22V4668.33C1774.22 4659.33 1780.88 4652.33 1790.22 4652.33C1799.22 4652.33 1805.88 4659.33 1805.88 4668.33V4696.33H1833.55C1841.88 4696.33 1848.22 4702.67 1848.22 4711C1848.22 4719.33 1841.88 4725.33 1833.55 4725.33ZM2030.84 4764V4853C2030.84 4862 2024.18 4869 2014.84 4869C2005.84 4869 1999.18 4862 1999.18 4853V4764C1999.18 4735 1986.84 4720.67 1962.51 4720.67C1949.51 4720.67 1938.51 4725 1929.84 4733.33C1921.18 4741.67 1916.84 4751.67 1916.84 4764V4853C1916.84 4862 1910.18 4869 1900.84 4869C1891.51 4869 1885.18 4862.33 1885.18 4853V4638.33C1885.18 4629.33 1891.84 4622.33 1900.84 4622.33C1910.18 4622.33 1916.84 4629.33 1916.84 4638.33V4722.67C1927.84 4705.33 1949.51 4691.33 1972.18 4691.33C2011.18 4691.33 2030.84 4715.67 2030.84 4764ZM2074.54 4656V4650.67C2074.54 4640 2080.54 4636 2092.88 4636C2105.21 4636 2110.54 4640.33 2110.54 4650.67V4656C2110.54 4666.67 2104.88 4670.67 2092.54 4670.67C2079.54 4670.67 2074.54 4666.33 2074.54 4656ZM2092.21 4869C2083.21 4869 2076.54 4862 2076.54 4853V4708.67C2076.54 4699.67 2083.21 4692.67 2092.21 4692.67C2101.54 4692.67 2108.21 4699.67 2108.21 4708.67V4853C2108.21 4862 2101.54 4869 2092.21 4869ZM2291.07 4789.33H2173.73C2176.73 4821.67 2200.73 4843 2231.73 4843C2253.07 4843 2265.07 4836 2275.4 4826.33C2278.73 4824.33 2282.07 4823.33 2285.07 4823.33C2292.73 4823.33 2298.4 4829.67 2298.4 4836.67C2298.4 4841.33 2295.73 4845.33 2291.73 4849.33C2278.4 4862 2255.73 4872 2233.4 4872C2179.07 4872 2143.07 4835.33 2143.07 4783.33C2143.07 4726.67 2182.07 4690.33 2225.4 4690.33C2268.4 4690.33 2306.73 4726.67 2307.07 4775C2307.07 4783 2299.4 4789.33 2291.07 4789.33ZM2175.07 4762.67H2273.4V4760C2273.4 4748.33 2267.07 4738.67 2257.4 4731C2248.07 4723.33 2237.4 4719.67 2225.4 4719.67C2200.4 4719.67 2180.73 4733.33 2175.07 4762.67ZM2452.17 4706C2452.17 4716.67 2445.84 4722.33 2437.84 4722.33C2435.84 4722.33 2432.84 4721.67 2428.84 4720.33C2424.17 4718.67 2420.5 4718 2417.84 4718C2396.84 4718 2375.5 4741.67 2375.5 4772.67V4853C2375.5 4862 2368.84 4869 2359.5 4869C2350.17 4869 2343.84 4862.33 2343.84 4853V4710.33C2343.84 4701.33 2350.5 4694.33 2359.5 4694.33C2368.84 4694.33 2375.5 4701.33 2375.5 4710.33V4727.33C2385.17 4705.67 2405.84 4690.67 2430.84 4690.33C2442.5 4690.33 2452.17 4697 2452.17 4706ZM2485.86 4912C2478.2 4912 2472.86 4908 2472.86 4901C2472.86 4892.33 2481.86 4891.33 2485.53 4890C2491.86 4887 2495.2 4881.67 2495.2 4875.33C2495.2 4870.33 2490.86 4866.67 2484.53 4866.67C2480.86 4866.67 2477.86 4867.67 2475.53 4869C2471.2 4867 2468.86 4864 2468.86 4858.33C2469.2 4847.67 2482.86 4838 2495.2 4838C2511.53 4838 2521.53 4848.67 2521.53 4867C2521.53 4883.67 2503.2 4912 2485.86 4912ZM2845.38 4762.33V4837.33C2845.38 4843.33 2842.72 4848 2837.38 4851.33C2817.05 4864.67 2791.72 4871.67 2766.05 4872C2699.72 4873 2645.05 4818 2645.05 4752.33C2645.05 4687 2699.72 4631.33 2766.05 4632.33C2788.38 4632.67 2809.72 4637.33 2826.05 4647C2831.38 4650 2834.05 4654.67 2834.05 4660C2834.05 4669 2827.05 4676.33 2818.72 4676.33C2815.38 4676.33 2812.38 4675.67 2810.05 4674C2795.72 4667.33 2781.05 4664.33 2766.05 4664C2718.38 4663.33 2679.38 4704 2679.38 4752.33C2679.38 4800.67 2718.38 4841.33 2766.05 4840.67C2781.05 4840.67 2799.38 4836.67 2811.38 4831V4778H2771.05C2762.05 4778 2755.05 4771.33 2755.05 4762.33C2755.05 4753 2762.05 4746.33 2771.05 4746.33H2829.72C2838.72 4746.33 2845.38 4753.33 2845.38 4762.33ZM2963.49 4872C2914.49 4872 2876.15 4834 2875.49 4781.67C2875.15 4729.67 2915.15 4690.33 2963.49 4690.33C3011.82 4690.33 3051.82 4729.67 3051.49 4781.67C3050.82 4834 3012.49 4872 2963.49 4872ZM2963.49 4719.67C2932.15 4719.67 2907.15 4745.33 2907.15 4781.67C2907.15 4817.33 2932.15 4843 2963.49 4843C2994.82 4843 3019.82 4817.33 3019.82 4781.67C3019.82 4745.33 2994.82 4719.67 2963.49 4719.67ZM3329.08 4706.67C3329.08 4708.67 3328.42 4711.33 3326.75 4715L3263.42 4859C3260.75 4864.67 3255.42 4868.33 3249.75 4869C3242.75 4869.33 3236.08 4866 3233.08 4859L3169.75 4715C3168.75 4711.67 3168.08 4709 3168.08 4706.67C3168.08 4699.67 3174.42 4692.67 3183.75 4692.67C3190.42 4692.67 3196.08 4696 3199.08 4702.67L3249.42 4819.67L3299.75 4702.67C3302.75 4696 3307.75 4692.67 3314.08 4692.67C3322.42 4692.67 3329.08 4699 3329.08 4706.67ZM3499.4 4789.33H3382.07C3385.07 4821.67 3409.07 4843 3440.07 4843C3461.4 4843 3473.4 4836 3483.73 4826.33C3487.07 4824.33 3490.4 4823.33 3493.4 4823.33C3501.07 4823.33 3506.73 4829.67 3506.73 4836.67C3506.73 4841.33 3504.07 4845.33 3500.07 4849.33C3486.73 4862 3464.07 4872 3441.73 4872C3387.4 4872 3351.4 4835.33 3351.4 4783.33C3351.4 4726.67 3390.4 4690.33 3433.73 4690.33C3476.73 4690.33 3515.07 4726.67 3515.4 4775C3515.4 4783 3507.73 4789.33 3499.4 4789.33ZM3383.4 4762.67H3481.73V4760C3481.73 4748.33 3475.4 4738.67 3465.73 4731C3456.4 4723.33 3445.73 4719.67 3433.73 4719.67C3408.73 4719.67 3389.07 4733.33 3383.4 4762.67ZM3712.87 4708.33V4855C3712.87 4909.33 3674.87 4935.33 3625.87 4935.33C3616.87 4935.33 3606.53 4933.67 3594.53 4930.67C3582.87 4927.67 3575.2 4924.33 3571.87 4921C3564.87 4917.33 3561.53 4913 3561.53 4907.67C3561.53 4906.33 3561.87 4904.67 3562.87 4902.33C3565.2 4896.67 3569.53 4894 3575.2 4894C3578.2 4894 3581.2 4894.67 3584.53 4896C3602.2 4903 3616.2 4906.33 3626.2 4906.33C3661.87 4906.33 3681.2 4888 3681.2 4858.67V4840.67C3676.53 4849.33 3668.53 4856.67 3657.53 4863C3646.53 4869 3635.2 4871.67 3622.87 4872C3577.2 4872.67 3540.2 4833.33 3540.2 4781.33C3540.2 4729.67 3577.2 4689.67 3622.2 4690.33C3646.53 4690.67 3669.2 4703 3681.2 4719V4708.33C3681.2 4699 3687.53 4692 3696.87 4692C3706.2 4692 3712.87 4698.67 3712.87 4708.33ZM3682.53 4781.33C3682.53 4746 3659.2 4719.67 3626.53 4719.67C3594.53 4719.67 3570.87 4746.33 3570.87 4781.33C3570.87 4816.33 3594.53 4843 3626.53 4843C3659.2 4843 3682.53 4817.33 3682.53 4781.33ZM3916.22 4708.33V4853C3916.22 4862 3909.55 4869 3900.22 4869C3890.88 4869 3884.55 4862.33 3884.55 4853V4844.33C3872.88 4860 3851.55 4871.67 3828.55 4872C3783.55 4872.67 3747.88 4833.33 3747.88 4781.33C3747.88 4729.67 3783.88 4689.67 3827.55 4690.33C3851.22 4690.67 3872.55 4701.33 3884.55 4716.33V4708.33C3884.55 4699 3890.88 4692 3900.22 4692C3909.55 4692 3916.22 4698.67 3916.22 4708.33ZM3885.88 4781.33C3885.88 4746.67 3863.55 4719.67 3832.22 4719.67C3800.88 4719.67 3778.55 4746 3778.55 4781.33C3778.55 4816.67 3800.88 4843 3832.22 4843C3863.55 4843 3885.88 4816.67 3885.88 4781.33ZM4112.3 4762.33V4853C4112.3 4862 4105.64 4869 4096.3 4869C4087.3 4869 4080.64 4862 4080.64 4853V4762.67C4080.64 4736.33 4069.3 4719.67 4042.3 4719.67C4015.3 4719.67 3994.97 4739.33 3994.97 4762.67V4853C3994.97 4862 3988.3 4869 3978.97 4869C3969.64 4869 3963.3 4862.33 3963.3 4853V4710.33C3963.3 4701.33 3969.97 4694.33 3978.97 4694.33C3988.3 4694.33 3994.97 4701.33 3994.97 4710.33V4722C4006.64 4704.33 4028.64 4690.33 4052.3 4690.33C4092.3 4690.33 4112.3 4714.33 4112.3 4762.33Z" fill="#BA951B"/>
<path d="M856.25 107.47C1846.08 107.59 2664.9 750.268 2800.99 1586.25L1637.64 876.251C1637.64 876.251 2163.54 1235.37 2456.48 1491.01C2498.44 1527.62 2541.49 1566.3 2585.2 1606.48C2586.9 1607.73 2588.57 1609.07 2590.2 1610.49C3181.57 2125.04 3363.42 2604.64 3645.7 3278.59C3645.58 3278.38 3281.44 2636.3 2932.69 2210.61C2780.92 2025.36 2667.78 1911.1 2588.38 1841.13C1543.05 1795.22 711.567 1036.59 711.566 107.47H856.25Z" fill="#2D5A27"/>
<path d="M2408.41 1907.22C2398.15 1905.14 2387.88 1903.11 2377.63 1901.14C1345.94 1703.11 400.621 2104.83 258 2806.68L396.007 2834.72C396.095 2834.74 396.183 2834.76 396.271 2834.78C1393.23 3037.27 2315.91 2675.2 2512.82 2021.05C2520.72 1994.79 2527.46 1968.07 2532.98 1940.89C2533.88 1936.46 2529.32 1931.79 2522.8 1930.47L2408.41 1907.22Z" fill="#2D5A27"/>
<path fill-rule="evenodd" clip-rule="evenodd" d="M258 2806.68L396.271 2834.78C1393.23 3037.27 2315.91 2675.2 2512.82 2021.05C2507.26 1969.02 2452.66 1919.28 2377.63 1901.14C1345.94 1703.11 400.621 2104.83 258 2806.68Z" fill="#2D5A27"/>
<path d="M2878.82 1544.08C2877 1537.28 2875.23 1530.48 2873.51 1523.68C2700.4 839.604 3039.22 160.258 3637.31 9.35564e-07L3661.8 91.3677C3661.81 91.426 3661.83 91.4843 3661.84 91.5426C3838.62 751.594 3533.52 1411.96 2976.34 1604.86C2953.98 1612.6 2931.21 1619.59 2908.05 1625.79C2904.27 1626.8 2900.27 1624.12 2899.12 1619.81L2878.82 1544.08Z" fill="#2D5A27"/>
<path fill-rule="evenodd" clip-rule="evenodd" d="M3637.31 9.35564e-07L3661.84 91.5426C3838.62 751.594 3533.52 1411.96 2976.34 1604.86C2931.93 1605.76 2889.28 1573.09 2873.51 1523.68C2700.4 839.604 3039.22 160.258 3637.31 9.35564e-07Z" fill="#2D5A27"/>
<path d="M2581.61 2055.1C2578.32 2060.48 2575.08 2065.86 2571.87 2071.26C2248.85 2614.09 2296.51 3239.47 2681.56 3474.55L2725.68 3402.28C2725.71 3402.23 2725.74 3402.19 2725.77 3402.14C3044.47 2880.02 3015.64 2276.21 2669.56 2020.75C2655.67 2010.49 2641.27 2000.8 2626.36 1991.7C2623.92 1990.21 2620.26 1991.78 2618.18 1995.2L2581.61 2055.1Z" fill="#2D5A27"/>
<path fill-rule="evenodd" clip-rule="evenodd" d="M2681.56 3474.55L2725.77 3402.14C3044.47 2880.02 3015.64 2276.21 2669.56 2020.75C2637.78 2012.49 2597.56 2032.6 2571.87 2071.26C2248.85 2614.09 2296.51 3239.47 2681.56 3474.55Z" fill="#2D5A27"/>
</svg>
